# xmcd
#
# Track frame offsets:
#	150
#	12312
#	23047
#	38210
#	49595
#	77350
#	88652
#	109132
#	122965
#	135705
#	143917
#	155397
#	164670
#	210547
#	226712
#	237770
#	252817
#	259985
#	274082
#	284102
#
# Disc length: 3937 seconds
#
# Revision: 1
# Processed by: cddbd v1.5PL3 Copyright (c) Steve Scherf et al.
# Submitted via: CDex 1.50Beta5
#
DISCID=150f5f14
DTITLE=新しいアーティスト - Romanza Andaluza
DYEAR=1900
DGENRE=Classical -> General Classical
TTITLE0=白鳥（サン＝サーンス）
TTITLE1=ハンガリー舞曲第５番（ブラームス／ヨアヒム）
TTITLE2=歌の翼に（メンデルスゾーン）
TTITLE3=タンゴ（アルベニ／クライスラー）
TTITLE4=ニーグン〜バール・シェムより（ブロッホ）
TTITLE5=ガヴォット（ゴセック／メイヤー）
TTITLE6=アンダルシアのロマンス（サラサーテ）
TTITLE7=ハンガリー舞曲第１番（ブラームス／ヨアヒム）
TTITLE8=夢のあとに（フォーレ）
TTITLE9=シシリエンヌ（パラディス／ドゥシュキン）
TTITLE10=ト長調のメヌエット（ベートーヴェン）
TTITLE11=仮面〜ロメオとジュリエットより（プロコフィエフ）
TTITLE12=シャコンヌ（ヴィターリ）
TTITLE13=ユモレスク（ドヴォルザーク／クライスラー）
TTITLE14=ベートーヴェンの主題によるロンディーノ（クライスラー）
TTITLE15=子守唄（フォーレ）
TTITLE16=エチュード・カプリス第４番（ヴィエニアウスキ）
TTITLE17=ハンガリー舞曲第２０番（ブラームス／ヨアヒム）
TTITLE18=スペインのセレナーデ（シャミナード／クライスラー）
TTITLE19=悲しきワルツ（ヴェッチェイ）
EXTD=
EXTT0=
EXTT1=
EXTT2=
EXTT3=
EXTT4=
EXTT5=
EXTT6=
EXTT7=
EXTT8=
EXTT9=
EXTT10=
EXTT11=
EXTT12=
EXTT13=
EXTT14=
EXTT15=
EXTT16=
EXTT17=
EXTT18=
EXTT19=
PLAYORDER=
